<svg width="1280" height="798" viewBox="0 0 1280 798" fill="none" xmlns="http://www.w3.org/2000/svg">
<g opacity="0.2">
<rect width="170.631" height="678.602" transform="matrix(0.99605 -0.0887967 -0.0887967 -0.99605 2.64844 797.748)" fill="black" fill-opacity="0.28"/>
<rect width="170.631" height="678.602" transform="matrix(0.99605 -0.0887967 -0.0887967 -0.99605 172.605 782.597)" fill="black" fill-opacity="0.28"/>
<rect width="170.631" height="678.602" transform="matrix(0.99605 -0.0887967 -0.0887967 -0.99605 342.562 767.445)" fill="#C2C2C2"/>
<rect width="170.631" height="678.602" transform="matrix(0.99605 -0.0887967 -0.0887967 -0.99605 512.521 752.294)" fill="black" fill-opacity="0.28"/>
<rect width="170.631" height="678.602" transform="matrix(0.99605 -0.0887967 -0.0887967 -0.99605 682.477 737.143)" fill="black" fill-opacity="0.28"/>
<rect width="170.631" height="678.602" transform="matrix(0.99605 -0.0887967 -0.0887967 -0.99605 852.436 721.99)" fill="black" fill-opacity="0.28"/>
<rect width="170.631" height="678.602" transform="matrix(0.99605 -0.0887967 -0.0887967 -0.99605 1022.39 706.839)" fill="black" fill-opacity="0.28"/>
<rect width="170.631" height="678.602" transform="matrix(0.99605 -0.0887967 -0.0887967 -0.99605 1192.35 691.688)" fill="black" fill-opacity="0.28"/>
</g>
</svg>
